<?xml version="1.0" encoding="UTF-8" standalone="no"?>
<!-- Generator: Adobe Illustrator 26.3.1, SVG Export Plug-In . SVG Version: 6.00 Build 0)  -->

<svg
   version="1.1"
   id="Calque_1"
   x="0px"
   y="0px"
   viewBox="0 0 226.77 204.09"
   xml:space="preserve"
   sodipodi:docname="logo.svg"
   inkscape:version="1.2.2 (b0a8486541, 2022-12-01)"
   xmlns:inkscape="http://www.inkscape.org/namespaces/inkscape"
   xmlns:sodipodi="http://sodipodi.sourceforge.net/DTD/sodipodi-0.dtd"
   xmlns="http://www.w3.org/2000/svg"
   xmlns:svg="http://www.w3.org/2000/svg"><defs
   id="defs21" /><sodipodi:namedview
   id="namedview19"
   pagecolor="#ffffff"
   bordercolor="#000000"
   borderopacity="0.25"
   inkscape:showpageshadow="2"
   inkscape:pageopacity="0.0"
   inkscape:pagecheckerboard="0"
   inkscape:deskcolor="#d1d1d1"
   showgrid="false"
   inkscape:zoom="3.1348968"
   inkscape:cx="113.71985"
   inkscape:cy="102.07673"
   inkscape:window-width="1920"
   inkscape:window-height="1011"
   inkscape:window-x="0"
   inkscape:window-y="0"
   inkscape:window-maximized="1"
   inkscape:current-layer="Calque_1" />
<style
   type="text/css"
   id="style2">
	.st0{fill:#7a7f82;}
</style>
<g
   id="g16"
   transform="translate(-22.68,-22.68)">
	<rect
   x="136.06"
   y="22.68"
   class="st0"
   width="22.68"
   height="22.68"
   id="rect4" />
	<rect
   x="113.39"
   y="45.349998"
   class="st0"
   width="22.68"
   height="22.68"
   id="rect6" />
	<rect
   x="90.709999"
   y="68.029999"
   class="st0"
   width="22.68"
   height="22.68"
   id="rect8" />
	<rect
   x="68.029999"
   y="90.709999"
   class="st0"
   width="22.68"
   height="22.68"
   id="rect10" />
	<rect
   x="45.349998"
   y="113.39"
   class="st0"
   width="22.68"
   height="45.349998"
   id="rect12" />
	<polygon
   class="st0"
   points="204.09,113.39 204.09,68.03 181.42,68.03 181.42,45.35 158.74,45.35 158.74,90.71 136.06,90.71 136.06,113.38 158.74,113.38 158.74,136.06 136.06,136.06 136.06,113.39 113.39,113.39 113.39,136.06 90.71,136.06 90.71,158.74 68.03,158.74 68.03,181.42 45.35,181.42 45.35,158.74 22.68,158.74 22.68,226.77 249.45,226.77 249.45,136.06 226.77,136.06 226.77,113.39 "
   id="polygon14" />
</g>
</svg>
